# xmcd CD database file
#
# Track frame offsets:
#	150
#	14710
#	32362
#	48942
#	68807
#	83947
#	100600
#	113390
#	130792
#	149600
#	167425
#	182152
#
# Disc length: 2694 seconds
#
# Revision: 1
# Processed by: cddbd v1.5.1PL2 Copyright (c) Steve Scherf et al.
# Submitted via: CDex 1.51
#
DISCID=940a840c
DTITLE=The Nashville Superpickers - Pickin' on the Doobie Brothers
DYEAR=2001
DGENRE=Bluegrass
TTITLE0=Long Train Runnin'
TTITLE1=Minute By Minute
TTITLE2=Black Water
TTITLE3=Jesus Is Alright
TTITLE4=Takin' It To The Street
TTITLE5=What A Fool Believes
TTITLE6=Rockin' Down The Highway
TTITLE7=It Keeps You Runnin'
TTITLE8=Listen To The Music
TTITLE9=Real Love
TTITLE10=China Grove
TTITLE11=Take Me In Your Arms (Rock Me)
EXTD=YEAR: 2001
EXTT0=
EXTT1=
EXTT2=
EXTT3=
EXTT4=
EXTT5=
EXTT6=
EXTT7=
EXTT8=
EXTT9=
EXTT10=
EXTT11=
PLAYORDER=
